<svg width="400" height="151" viewBox="0 0 400 151" fill="none" xmlns="http://www.w3.org/2000/svg">
<path d="M342.275 86.2892C342.779 90.4571 345.091 89.1927 345.091 91.2063C345.091 91.9556 344.503 92.4239 343.578 92.4239C342.485 92.4239 341.602 92.2834 339.416 92.2834C337.146 92.2834 336.306 92.4239 335.171 92.4239C334.078 92.4239 333.615 91.8619 333.615 91.1127C333.615 89.38 336.054 90.0356 336.054 87.7878C336.054 87.0853 335.969 86.6639 335.927 86.2424L335.045 79.3117C334.666 76.1273 333.657 73.739 331.303 73.739C329.454 73.739 327.352 75.3312 327.352 80.0141V86.8512C327.352 90.3166 329.874 89.2863 329.874 91.1595C329.874 91.7683 329.454 92.4707 328.445 92.4707C327.478 92.4707 326.343 92.3302 324.199 92.3302C322.098 92.3302 321.047 92.4707 320.038 92.4707C319.029 92.4707 318.609 91.8151 318.609 91.1595C318.609 89.2863 321.047 90.3166 321.047 86.8512V64.9819C321.047 62.0317 318.272 63.3429 318.272 61.2356C318.272 60.2053 319.365 59.5966 322.308 58.098C325.082 56.74 325.629 56.5995 326.133 56.5995C327.1 56.5995 327.352 57.4892 327.352 58.66V73.0366C328.655 70.5546 331.051 68.4005 334.372 68.4005C338.702 68.4005 340.677 72.5214 341.266 77.579L342.275 86.2892Z" fill="black"/>
<path d="M306.467 93.2668C300.204 93.2668 295.244 88.7244 295.244 81.0444C295.244 73.0834 300.75 67.979 306.888 67.979C311.806 67.979 315.673 71.3975 315.673 73.7858C315.673 74.9097 315.043 76.4551 312.941 78.3283C312.31 78.9371 311.932 79.0775 311.554 79.0775C310.797 79.0775 310.335 78.4219 310.209 77.5322C309.662 74.6288 308.905 71.0697 306.047 71.0697C303.483 71.0697 301.801 73.8795 301.801 78.2346C301.801 84.5566 305.416 88.4434 309.242 88.4434C311.638 88.4434 313.403 87.179 314.664 85.7741C315.085 85.3527 315.379 85.1653 315.715 85.1653C316.262 85.1653 316.64 85.7273 316.64 86.3361C316.64 86.7575 316.514 87.179 316.304 87.6941C315.169 90.2229 311.722 93.2668 306.467 93.2668Z" fill="black"/>
<path d="M291.035 86.2893C291.498 90.4571 293.81 89.1927 293.81 91.2064C293.81 91.9556 293.221 92.4239 292.297 92.4239C291.204 92.4239 290.321 92.2834 288.135 92.2834C285.865 92.2834 285.024 92.4239 283.931 92.4239C282.838 92.4239 282.334 91.862 282.334 91.1127C282.334 89.38 284.772 90.0356 284.772 87.5069C284.772 87.0386 284.688 86.2893 284.562 85.3995L283.805 79.3117C283.385 76.1273 282.418 73.7391 280.022 73.7391C278.214 73.7391 276.113 75.3312 276.113 80.0142V86.8512C276.113 90.3166 278.593 89.2864 278.593 91.1595C278.593 91.7683 278.172 92.4708 277.206 92.4708C276.197 92.4708 275.062 92.3303 272.96 92.3303C270.858 92.3303 269.765 92.4708 268.756 92.4708C267.747 92.4708 267.327 91.8151 267.327 91.1595C267.327 89.2864 269.807 90.3166 269.807 86.8512V76.9703C269.807 73.9732 267.033 75.2844 267.033 73.2239C267.033 72.1937 268.084 71.5381 271.068 70.0864C273.843 68.6815 274.347 68.541 274.81 68.541C275.818 68.541 276.113 69.4776 276.113 70.7888V73.0366C277.416 70.5547 279.812 68.4005 283.091 68.4005C287.42 68.4005 289.396 72.5215 289.985 77.579L291.035 86.2893Z" fill="black"/>
<path d="M265.246 88.256C265.708 88.3497 266.044 88.6775 266.044 89.1926C266.044 90.5038 264.111 92.7048 260.79 92.7048C258.898 92.7048 257.175 91.6277 256.25 89.5204C254.653 91.2531 251.962 92.8921 248.473 92.8921C243.849 92.8921 240.991 89.8951 240.991 85.6804C240.991 81.419 244.143 78.0473 249.818 78.0473C251.752 78.0473 253.307 78.3751 254.568 78.7965L254.526 78.2814C254.022 74.3009 252.383 72.7555 249.987 72.7555C248.137 72.7555 246.624 73.5516 245.278 74.5351C244.69 74.9097 244.143 75.2375 243.681 75.2375C243.177 75.2375 242.588 74.7692 242.588 73.9263C242.588 73.0833 243.303 72.1936 243.933 71.5848C245.615 69.7585 248.515 68.3068 252.046 68.3068C257.301 68.3068 259.991 71.3038 260.622 76.4551L261.588 84.1351C261.967 87.2258 262.934 87.7409 265.246 88.256ZM251.164 88.818C252.929 88.818 254.653 87.7409 255.535 86.6638L254.947 81.7468C254.064 81.419 252.971 81.2316 251.836 81.2316C249.188 81.2316 247.506 82.496 247.506 84.8843C247.506 87.2726 249.062 88.818 251.164 88.818Z" fill="black"/>
<path d="M234.617 85.8209C237.307 89.7077 239.535 89.1926 239.535 91.2531C239.535 91.9555 239.073 92.4706 238.232 92.4706C237.139 92.4706 235.037 92.3302 232.809 92.3302C230.708 92.3302 228.984 92.4706 227.849 92.4706C226.714 92.4706 226.084 92.0024 226.084 91.1126C226.084 89.4267 228.101 90.0355 228.101 88.3028C228.101 87.5067 227.513 86.7106 227.008 85.9145L224.15 81.6999C223.477 80.7165 222.931 80.3887 222.09 80.3887C221.25 80.4355 220.367 80.4355 219.526 80.3887C218.853 80.3887 218.601 80.7165 218.601 81.4658V86.8511C218.601 90.1292 221.292 89.1458 221.292 91.1126C221.292 91.815 220.829 92.4706 219.778 92.4706C218.685 92.4706 217.466 92.3302 215.112 92.3302C212.758 92.3302 211.623 92.4706 210.572 92.4706C209.479 92.4706 209.059 91.815 209.059 91.1126C209.059 89.1458 211.623 90.1292 211.623 86.8511V64.4667C211.623 61.1887 209.059 62.1721 209.059 60.1584C209.059 59.5028 209.479 58.8472 210.783 58.8472C211.497 58.8472 213.095 58.9877 214.734 58.9877C216.457 58.9877 219.568 58.6599 222.048 58.6599C231.885 58.6599 236.719 63.2024 236.719 69.8521C236.719 74.5819 234.281 78.0472 230.203 79.4521L234.617 85.8209ZM221.754 77.1575C226.294 77.1575 229.068 75.378 229.068 69.9458C229.068 64.7477 225.916 62.3594 221.67 62.3594C219.652 62.3594 218.601 62.8277 218.601 64.6072V75.5184C218.601 76.8297 219.442 77.1575 221.754 77.1575Z" fill="black"/>
<path d="M192.875 84.8844C192.875 87.8346 195.775 86.9917 195.775 88.9117C195.775 90.0356 194.724 90.5975 191.529 91.7683C188.923 92.7985 188.293 92.939 187.872 92.939C186.695 92.939 186.569 91.581 186.569 90.6444V88.4902C185.014 91.0658 182.408 93.0795 178.834 93.0795C173.58 93.0795 169.292 88.6307 169.292 81.0444C169.292 73.5517 174.126 68.1663 180.474 68.1663C183.038 68.1663 185.098 69.0561 186.569 70.461V64.8414C186.569 61.8444 183.332 63.2961 183.332 61.0951C183.332 60.0649 184.383 59.4561 187.662 57.9575C190.478 56.6931 191.151 56.5995 191.571 56.5995C192.622 56.5995 192.875 57.6297 192.875 58.8473V84.8844ZM181.735 88.1624C184.341 88.1624 186.569 85.6336 186.569 81.6063V79.9673C186.569 75.2375 183.879 71.7253 180.852 71.7253C177.91 71.7253 175.976 74.4883 175.976 79.0307C175.976 84.6502 178.834 88.1624 181.735 88.1624Z" fill="black"/>
<path d="M164.919 86.2893C165.381 90.4571 167.693 89.1927 167.693 91.2064C167.693 91.9556 167.105 92.4239 166.18 92.4239C165.087 92.4239 164.204 92.2834 162.018 92.2834C159.748 92.2834 158.908 92.4239 157.815 92.4239C156.722 92.4239 156.217 91.862 156.217 91.1127C156.217 89.38 158.656 90.0356 158.656 87.5069C158.656 87.0386 158.571 86.2893 158.445 85.3995L157.689 79.3117C157.268 76.1273 156.301 73.7391 153.905 73.7391C152.098 73.7391 149.996 75.3312 149.996 80.0142V86.8512C149.996 90.3166 152.476 89.2864 152.476 91.1595C152.476 91.7683 152.056 92.4708 151.089 92.4708C150.08 92.4708 148.945 92.3303 146.843 92.3303C144.742 92.3303 143.649 92.4708 142.64 92.4708C141.631 92.4708 141.211 91.8151 141.211 91.1595C141.211 89.2864 143.691 90.3166 143.691 86.8512V76.9703C143.691 73.9732 140.916 75.2844 140.916 73.2239C140.916 72.1937 141.967 71.5381 144.952 70.0864C147.726 68.6815 148.231 68.541 148.693 68.541C149.702 68.541 149.996 69.4776 149.996 70.7888V73.0366C151.299 70.5547 153.695 68.4005 156.974 68.4005C161.304 68.4005 163.279 72.5215 163.868 77.579L164.919 86.2893Z" fill="black"/>
<path d="M137.499 85.4932C138.13 85.4932 138.508 86.1956 138.508 86.7107C138.508 87.0853 138.382 87.46 138.13 87.9283C136.743 90.3634 132.875 93.2668 127.747 93.2668C121.273 93.2668 116.439 88.3966 116.439 80.8102C116.439 73.0366 121.862 67.979 128.041 67.979C134.052 67.979 137.667 72.7556 137.667 77.3449C137.667 78.7029 137.289 78.9371 136.532 79.218L123.922 83.5263C125.225 86.4766 127.621 88.6307 130.689 88.6307C132.791 88.6307 134.515 87.741 136.07 86.2892C136.743 85.7273 137.079 85.4932 137.499 85.4932ZM127.158 71.538C124.636 71.538 122.829 74.0668 122.829 78.1878C122.829 78.9371 122.871 79.6863 122.997 80.3888L130.227 77.7663C130.9 77.5322 131.236 77.1575 131.236 76.3146C131.236 74.1605 129.554 71.538 127.158 71.538Z" fill="black"/>
<path d="M106.847 65.263C104.997 65.263 103.736 64.0923 103.736 62.3128C103.736 59.9713 105.964 57.4425 108.864 57.4425C110.63 57.4425 112.143 58.7069 112.143 60.5801C112.143 62.8747 109.705 65.263 106.847 65.263ZM104.114 92.4708C103.105 92.4708 102.685 91.8152 102.685 91.1596C102.685 89.2864 105.165 90.3167 105.165 86.8513V76.9703C105.165 73.9732 102.391 75.2845 102.391 73.224C102.391 72.1937 103.442 71.5381 106.426 70.0864C109.201 68.6815 109.705 68.541 110.167 68.541C111.176 68.541 111.471 69.4776 111.471 70.7888V86.8513C111.471 90.3167 113.951 89.2864 113.951 91.1596C113.951 91.7684 113.53 92.4708 112.564 92.4708C111.555 92.4708 110.42 92.3303 108.318 92.3303C106.216 92.3303 105.123 92.4708 104.114 92.4708Z" fill="black"/>
<path d="M96.7297 68.3536C99.0837 68.3536 100.639 69.8522 100.639 71.538C100.639 72.8493 100.093 74.5819 99.2098 76.9234C98.8735 77.86 98.4111 78.4219 97.6965 78.4219C97.0239 78.4219 96.6036 77.8132 96.2673 77.0639C95.5106 75.378 94.796 74.3946 93.661 74.3946C92.0216 74.3946 89.4574 76.8766 89.4574 82.5429V86.8512C89.4574 90.3166 92.484 89.099 92.484 91.1595C92.484 91.7683 92.0637 92.4707 91.0548 92.4707C89.9619 92.4707 88.6587 92.3302 86.3047 92.3302C84.2029 92.3302 83.11 92.4707 82.1011 92.4707C81.0922 92.4707 80.6719 91.8151 80.6719 91.1595C80.6719 89.2863 83.152 90.3166 83.152 86.8512V76.9702C83.152 73.9732 80.3776 75.2844 80.3776 73.2239C80.3776 72.1936 81.4285 71.538 84.4131 70.0863C87.1875 68.6814 87.6919 68.541 88.1543 68.541C89.1632 68.541 89.4574 69.4775 89.4574 70.7888V74.6288C90.7185 71.0697 93.7031 68.3536 96.7297 68.3536Z" fill="black"/>
<path d="M79.1908 64.42C79.9474 66.1995 80.2837 66.9956 80.2837 67.9322C80.2837 68.9156 79.6952 69.4307 79.0647 69.4307C78.4341 69.4307 78.0138 68.9624 77.3412 68.2132C74.4407 64.7478 72.6331 62.5936 69.4384 62.5936H66.664C64.4781 62.5936 64.0578 63.2493 64.0578 64.7946V72.9429C64.0578 73.7858 64.31 74.1136 65.3188 74.1136H68.976C71.4561 74.1136 71.4561 70.5546 73.0955 70.5546C73.8942 70.5546 74.3987 71.1166 74.3987 72.381C74.3987 73.5049 74.2725 74.7693 74.2725 75.94C74.2725 77.1107 74.3987 78.4688 74.3987 79.5458C74.3987 80.8102 73.8942 81.3722 73.0955 81.3722C71.4561 81.3722 71.4561 77.7195 68.976 77.7195H65.3188C64.31 77.7195 64.0578 78.0941 64.0578 78.9371V86.8512C64.0578 90.1293 67.2105 89.1458 67.2105 91.1127C67.2105 91.8151 66.7481 92.4707 65.6972 92.4707C64.5202 92.4707 63.175 92.3302 60.6528 92.3302C58.2568 92.3302 57.0798 92.4707 56.0289 92.4707C54.9359 92.4707 54.5156 91.8151 54.5156 91.1127C54.5156 89.1458 57.0798 90.1293 57.0798 86.8512V64.4668C57.0798 61.1888 54.5156 62.1722 54.5156 60.2054C54.5156 59.4561 54.9359 58.8473 56.0709 58.8473C56.9957 58.8473 58.2568 58.9878 60.5688 58.9878H72.2548C73.9783 58.9878 74.1464 57.8639 75.2394 57.8639C76.1642 57.8639 76.7527 58.5195 77.5093 60.2522L79.1908 64.42Z" fill="black"/>
<path d="M291.151 25.122L340.104 23.2754L335.395 40.8314L335.094 41.9538L336.249 42.0842L382.031 47.2533L360.276 62.44L358.594 63.6148L360.556 64.2161L396.587 75.2581L360.556 86.3L358.594 86.9013L360.276 88.0761L382.031 103.263L336.249 108.432L335.094 108.562L335.395 109.685L340.104 127.241L291.151 125.394L290.649 125.375L290.334 125.767L276.138 143.449L232.192 134.596L231.873 134.532L231.578 134.667L200 149.158L168.422 134.667L168.127 134.532L167.808 134.596L123.862 143.449L109.666 125.767L109.351 125.375L108.849 125.394L59.8957 127.241L64.6049 109.685L64.9059 108.562L63.7512 108.432L17.9688 103.263L39.7236 88.0761L41.4064 86.9013L39.4442 86.3L3.41291 75.2581L39.4442 64.2161L41.4064 63.6148L39.7236 62.44L17.9688 47.2533L63.7512 42.0842L64.9059 41.9538L64.6049 40.8314L59.8957 23.2754L108.849 25.122L109.351 25.1409L109.666 24.7487L123.862 7.06754L167.808 15.9201L168.127 15.9843L168.422 15.8486L200 1.35832L231.578 15.8486L231.873 15.9843L232.192 15.9201L276.138 7.06754L290.334 24.7487L290.649 25.1409L291.151 25.122Z" stroke="black" stroke-width="2"/>
</svg>
