<svg width="541" height="135" viewBox="0 0 541 135" fill="none" xmlns="http://www.w3.org/2000/svg">
<path d="M431.693 88C430.797 88 430.157 87.488 430.157 86.656C430.157 85.76 430.733 85.376 431.309 84.992C431.949 84.544 432.525 84.096 432.525 83.136V48.64C432.525 47.424 431.821 46.912 431.181 46.464C430.605 46.016 430.029 45.568 430.029 44.672C430.029 43.84 430.669 43.2 431.565 43.2H436.045C437.325 43.2 438.157 44.096 438.157 45.44V60.736C441.101 57.024 445.517 54.72 450.253 54.72C456.333 54.72 460.557 58.496 460.557 64.64V83.136C460.557 84.096 461.133 84.544 461.773 84.992C462.349 85.376 462.925 85.76 462.925 86.656C462.925 87.488 462.285 88 461.389 88H454.029C453.133 88 452.557 87.488 452.557 86.656C452.557 85.76 453.133 85.376 453.709 84.992C454.349 84.544 454.925 84.096 454.925 83.136V64.96C454.925 60.864 452.109 58.176 447.949 58.176C443.981 58.176 440.269 60.544 438.157 64.256V83.136C438.157 84.096 438.733 84.544 439.373 84.992C439.949 85.376 440.525 85.76 440.525 86.656C440.525 87.488 439.949 88 439.053 88H431.693Z" fill="black"/>
<path d="M412.593 88.64C402.993 88.64 396.401 82.048 396.401 71.68C396.401 61.568 402.865 54.72 412.401 54.72C419.825 54.72 424.945 58.816 424.945 62.912C424.945 64.896 423.857 65.856 422.065 65.856C419.825 65.856 419.121 64.128 418.417 62.208C417.521 59.712 416.497 57.088 412.081 57.088C406.257 57.088 402.033 62.464 402.033 69.504C402.033 77.12 406.001 84.672 414.449 84.672C419.633 84.672 421.681 81.92 422.961 80.064C423.537 79.168 424.049 78.592 424.561 78.592C425.009 78.592 425.329 78.912 425.329 79.808C425.329 83.008 421.489 88.64 412.593 88.64Z" fill="black"/>
<path d="M360.755 88C359.859 88 359.219 87.488 359.219 86.656C359.219 85.76 359.795 85.376 360.371 84.992C361.011 84.544 361.587 84.096 361.587 83.136V60.8C361.587 59.584 360.883 59.072 360.243 58.624C359.667 58.176 359.091 57.728 359.091 56.832C359.091 56 359.731 55.36 360.627 55.36H365.107C366.387 55.36 367.219 56.256 367.219 57.6V60.736C370.163 57.024 374.579 54.72 379.315 54.72C385.395 54.72 389.619 58.496 389.619 64.64V83.136C389.619 84.096 390.195 84.544 390.835 84.992C391.411 85.376 391.987 85.76 391.987 86.656C391.987 87.488 391.347 88 390.451 88H383.091C382.195 88 381.619 87.488 381.619 86.656C381.619 85.76 382.195 85.376 382.771 84.992C383.411 84.544 383.987 84.096 383.987 83.136V64.96C383.987 60.864 381.171 58.176 377.011 58.176C373.043 58.176 369.331 60.544 367.219 64.256V83.136C367.219 84.096 367.795 84.544 368.435 84.992C369.011 85.376 369.587 85.76 369.587 86.656C369.587 87.488 369.011 88 368.115 88H360.755Z" fill="black"/>
<path d="M335.532 88.64C328.876 88.64 324.46 85.184 324.46 79.872C324.46 72.256 333.228 69.184 346.476 69.056V65.6C346.476 60.032 343.084 57.088 338.092 57.088C333.356 57.088 332.46 59.712 331.82 62.016C331.308 63.872 330.86 65.408 328.556 65.408C326.764 65.408 325.676 64.384 325.676 62.656C325.676 59.136 330.092 54.72 338.54 54.72C346.476 54.72 352.108 58.624 352.108 66.368V83.008C352.108 84.224 352.812 84.736 353.516 85.248C354.092 85.632 354.604 86.016 354.604 86.848C354.604 88 353.132 88.64 351.276 88.64C348.268 88.64 346.476 86.848 346.476 84.352C343.916 87.04 340.076 88.64 335.532 88.64ZM330.028 78.784C330.028 82.752 333.676 85.376 338.156 85.376C341.484 85.376 344.62 83.904 346.476 81.536V72.384C345.132 71.872 343.66 71.68 341.74 71.68C334.828 71.68 330.028 74.304 330.028 78.784Z" fill="black"/>
<path d="M284.342 88C283.382 88 282.678 87.488 282.678 86.528C282.678 85.504 283.318 85.056 283.958 84.608C284.598 84.16 285.238 83.648 285.238 82.688V49.792C285.238 48.768 284.598 48.32 283.958 47.872C283.318 47.424 282.678 46.912 282.678 45.952C282.678 44.992 283.382 44.48 284.342 44.48H304.502C313.014 44.48 318.582 49.344 318.582 56.896C318.582 63.552 314.166 68.16 306.806 69.184L316.854 82.88C318.07 84.544 319.286 85.12 320.182 85.376C320.95 85.568 321.398 85.824 321.398 86.592C321.398 87.616 320.118 88.64 318.07 88.64C315.51 88.64 312.758 87.36 310.518 84.288L299.83 69.44H291.254V82.688C291.254 83.648 291.766 84.16 292.47 84.608C293.238 85.12 293.814 85.504 293.814 86.528C293.814 87.488 293.174 88 292.15 88H284.342ZM302.774 47.36H291.254V66.624H302.198C309.238 66.624 312.566 63.04 312.566 57.984C312.566 52.992 309.238 47.36 302.774 47.36Z" fill="black"/>
<path d="M242.295 88.64C233.783 88.64 228.215 81.984 228.215 71.936C228.215 61.504 234.103 54.72 242.999 54.72C247.479 54.72 250.999 56.448 253.175 59.264V48.64C253.175 47.424 252.471 46.912 251.831 46.464C251.255 46.016 250.679 45.568 250.679 44.672C250.679 43.84 251.255 43.2 252.151 43.2H256.695C257.975 43.2 258.807 44.096 258.807 45.44V83.008C258.807 84.224 259.511 84.736 260.215 85.248C260.791 85.632 261.303 86.016 261.303 86.848C261.303 88 259.831 88.64 257.975 88.64C254.967 88.64 253.175 86.848 253.175 84.16V83.2C250.679 86.656 246.903 88.64 242.295 88.64ZM233.847 69.824C233.847 77.44 238.199 85.44 244.791 85.44C248.439 85.44 251.575 83.2 253.175 79.424V65.856C251.511 60.864 247.991 57.088 243.447 57.088C237.815 57.088 233.847 62.528 233.847 69.824Z" fill="black"/>
<path d="M192.505 88C191.609 88 190.969 87.488 190.969 86.656C190.969 85.76 191.545 85.376 192.121 84.992C192.761 84.544 193.337 84.096 193.337 83.136V60.8C193.337 59.584 192.633 59.072 191.993 58.624C191.417 58.176 190.841 57.728 190.841 56.832C190.841 56 191.481 55.36 192.377 55.36H196.857C198.137 55.36 198.969 56.256 198.969 57.6V60.736C201.913 57.024 206.329 54.72 211.065 54.72C217.145 54.72 221.369 58.496 221.369 64.64V83.136C221.369 84.096 221.945 84.544 222.585 84.992C223.161 85.376 223.737 85.76 223.737 86.656C223.737 87.488 223.097 88 222.201 88H214.841C213.945 88 213.369 87.488 213.369 86.656C213.369 85.76 213.945 85.376 214.521 84.992C215.161 84.544 215.737 84.096 215.737 83.136V64.96C215.737 60.864 212.921 58.176 208.761 58.176C204.793 58.176 201.081 60.544 198.969 64.256V83.136C198.969 84.096 199.545 84.544 200.185 84.992C200.761 85.376 201.337 85.76 201.337 86.656C201.337 87.488 200.761 88 199.865 88H192.505Z" fill="black"/>
<path d="M173.093 88.64C163.557 88.64 156.901 82.112 156.901 71.68C156.901 61.696 163.365 54.72 173.285 54.72C180.581 54.72 185.445 58.432 185.445 63.872C185.445 70.592 178.085 73.28 162.917 73.408C164.069 79.744 168.101 84.672 174.821 84.672C180.069 84.672 182.245 82.112 183.653 80.448C184.293 79.68 184.741 79.168 185.253 79.168C185.637 79.168 185.957 79.424 185.957 80.256C185.957 83.264 181.925 88.64 173.093 88.64ZM162.533 69.44C162.533 70.016 162.533 70.592 162.597 71.168C175.333 71.04 179.877 68.544 179.877 63.68C179.877 59.776 177.125 57.088 172.837 57.088C166.757 57.088 162.533 62.464 162.533 69.44Z" fill="black"/>
<path d="M146.457 50.176C144.217 50.176 142.745 48.704 142.745 46.528C142.745 44.352 144.217 42.88 146.457 42.88C148.697 42.88 150.169 44.352 150.169 46.528C150.169 48.704 148.697 50.176 146.457 50.176ZM143.193 88C142.297 88 141.657 87.488 141.657 86.656C141.657 85.76 142.233 85.376 142.809 84.992C143.449 84.544 144.025 84.096 144.025 83.136V60.8C144.025 59.584 143.321 59.072 142.681 58.624C142.105 58.176 141.529 57.728 141.529 56.832C141.529 56 142.169 55.36 143.065 55.36H147.545C148.825 55.36 149.657 56.256 149.657 57.6V83.136C149.657 84.096 150.233 84.544 150.873 84.992C151.449 85.376 152.025 85.76 152.025 86.656C152.025 87.488 151.449 88 150.553 88H143.193Z" fill="black"/>
<path d="M117.38 88C116.484 88 115.844 87.488 115.844 86.656C115.844 85.76 116.42 85.376 116.996 84.992C117.636 84.544 118.212 84.096 118.212 83.136V60.8C118.212 59.584 117.508 59.072 116.868 58.624C116.292 58.176 115.716 57.728 115.716 56.832C115.716 56 116.356 55.36 117.252 55.36H121.732C123.012 55.36 123.844 56.256 123.844 57.6V60.928C126.148 57.024 129.412 54.72 132.932 54.72C135.748 54.72 137.54 56.192 137.54 58.304C137.54 60.16 136.132 61.504 134.02 61.504C132.996 61.504 132.164 61.184 131.396 60.736C130.628 60.288 129.924 59.968 129.028 59.968C127.108 59.968 125.188 61.376 123.844 65.024V83.136C123.844 84.096 124.548 84.544 125.252 84.928C125.892 85.312 126.596 85.76 126.596 86.656C126.596 87.488 125.956 88 125.06 88H117.38Z" fill="black"/>
<path d="M81.3417 88C80.3817 88 79.6777 87.488 79.6777 86.528C79.6777 85.504 80.3177 85.056 80.9577 84.608C81.5977 84.16 82.2377 83.648 82.2377 82.688V49.792C82.2377 48.768 81.5977 48.32 80.9577 47.872C80.3177 47.424 79.6777 46.912 79.6777 45.952C79.6777 44.992 80.3817 44.48 81.3417 44.48H109.438C110.846 44.48 111.678 45.312 111.678 46.592V52.736C111.678 53.632 111.102 54.336 110.206 54.336C109.118 54.336 108.606 53.12 108.03 51.584C107.326 49.664 106.43 47.36 103.806 47.36H88.2537V64.256H100.35C101.886 64.256 102.526 63.168 103.102 62.144C103.678 61.184 104.126 60.416 105.15 60.416C106.11 60.416 106.622 61.12 106.622 62.08V69.248C106.622 70.208 106.11 70.912 105.15 70.912C104.126 70.912 103.678 70.144 103.102 69.184C102.526 68.16 101.886 67.072 100.35 67.072H88.2537V82.688C88.2537 83.648 89.0217 84.16 89.7897 84.608C90.6217 85.056 91.1977 85.504 91.1977 86.528C91.1977 87.488 90.5577 88 89.5337 88H81.3417Z" fill="black"/>
<path d="M540.5 67.5C540.5 76.5334 533.151 85.2829 519.489 93.3434C505.86 101.384 486.106 108.642 461.651 114.745C412.75 126.947 345.168 134.5 270.5 134.5C195.832 134.5 128.25 126.947 79.3487 114.745C54.8944 108.642 35.14 101.384 21.5113 93.3434C7.84884 85.2829 0.5 76.5334 0.5 67.5C0.5 58.4666 7.84884 49.7171 21.5113 41.6566C35.14 33.616 54.8944 26.3577 79.3487 20.2554C128.25 8.05279 195.832 0.5 270.5 0.5C345.168 0.5 412.75 8.05279 461.651 20.2554C486.106 26.3577 505.86 33.616 519.489 41.6566C533.151 49.7171 540.5 58.4666 540.5 67.5Z" stroke="black"/>
</svg>
